<?xml version="1.0" encoding="utf-8"?>
<svg viewBox="0 0 128 128" style="fill-rule:evenodd;clip-rule:evenodd;stroke-linejoin:round;stroke-miterlimit:2;" xmlns="http://www.w3.org/2000/svg">
  <g id="Artboard11">
    <g id="Trotinette" transform="matrix(0.318058,0,0,0.318058,-20.9532,-25.2435)" style="visibility: hidden;">
      <path d="M395.43,350.378C414.11,357.686 424.424,373.585 424.302,392.794C424.181,411.852 410.749,428.263 393.746,433.43C370.039,440.634 344.409,425.223 339.945,400.777C336.508,381.959 342.429,366.976 357.876,355.663C358.886,354.924 359.85,353.034 359.641,351.901C358.569,346.11 357.105,340.391 355.627,333.995C346.441,346.714 337.608,359.054 328.653,371.305C323.176,378.797 317.804,386.396 311.845,393.494C306.595,399.746 299.591,402.459 291.155,402.409C255.658,402.196 220.16,402.395 184.663,402.217C180.899,402.199 179.343,403.362 177.915,406.749C171.078,422.963 153.391,431.31 136.142,426.808C120.199,422.648 108.558,406.047 110.019,389.558C111.54,372.4 124.568,358.613 142.13,356.21C153.545,354.649 171.701,360.24 178.52,380.868L186.918,380.868C187.12,371.743 180.569,361.302 171.022,355.134C160.962,348.636 150.22,347.627 138.777,350.417C136.137,351.06 133.058,351.193 130.478,350.483C126.785,349.466 124.357,346.654 124.005,342.548C123.603,337.849 125.848,334.477 129.773,332.364C137.011,328.47 145.053,327.524 152.971,328.214C178.136,330.407 195.742,343.5 205.636,366.692C207.532,371.137 208.296,376.065 209.641,380.986C237.256,380.986 264.909,381.023 292.56,380.883C294.037,380.876 296.013,379.743 296.904,378.516C313.825,355.19 330.669,331.807 347.336,308.299C348.572,306.555 349.132,303.603 348.68,301.497C337.925,251.398 326.986,201.34 316.101,151.269C315.897,150.33 315.934,149.339 315.83,148.001C307.205,148.001 298.732,148.097 290.262,147.973C282.443,147.859 277.766,143.237 277.995,136.154C278.171,130.73 282.6,126.056 288.111,126.036C313.109,125.948 338.108,125.933 363.106,126.048C369.159,126.076 373.41,130.979 373.334,137.14C373.26,143.058 368.487,147.81 362.033,147.952C354.081,148.127 346.122,147.994 337.926,147.994C352.364,214.777 366.705,281.11 381.04,347.413C385.759,348.341 390.423,349.258 395.43,350.378M367.012,384.482C366.569,382.667 366.125,380.851 365.64,378.864C359.108,386.051 358.344,394.888 363.321,403.16C367.893,410.758 378.137,414.978 386.526,412.718C396.377,410.064 403.022,401.371 403.004,391.163C402.987,381.242 397.415,374.206 386.71,371.135C388.306,378.251 389.723,385.131 391.42,391.941C392.479,396.189 391.063,399.371 387.809,401.838C382.005,406.24 373.637,403.655 370.268,396.153C368.742,392.754 368.152,388.934 367.012,384.482M153.451,380.999C153.678,380.46 154.197,379.517 154.09,379.44C148.527,375.429 138.708,376.922 134.228,382.395C129.087,388.675 129.795,397.839 135.852,403.394C141.734,408.788 149.703,408.408 155.664,402.448C149.092,400.626 145.55,397.288 145.012,392.41C144.48,387.579 147.083,383.708 153.451,380.999Z" style="fill:rgb(1,1,1);fill-rule:nonzero;"/>
    </g>
    <g id="_2-roues" transform="matrix(0.298382,0,0,0.298382,-14.1743,-157.81)" style="visibility: hidden;">
      <path d="M327.615,754.133C330.977,760.792 334.03,767.217 337.111,773.701C341.616,766.157 349.819,766.415 357.973,766.692C363.685,766.887 366.521,769.479 366.907,775.232C367.219,779.879 367.193,784.573 366.942,789.225C366.623,795.145 363.271,798.14 357.368,798.197C352.72,798.242 348.071,798.206 342.98,798.206L347.664,811.374C350.602,810.933 353.469,810.287 356.366,810.105C367.177,809.425 377.354,811.682 386.817,817.033C390.275,818.988 391.31,821.323 387.938,824.677C395.824,830.765 401.923,838.144 405.216,847.733C415.152,876.67 395.062,907.092 364.611,910.189C342.133,912.475 317.905,898.477 313.244,870.985C312.687,867.698 312.747,864.754 309.984,861.881C308.417,860.251 308.985,855.878 309.601,852.953C312.677,838.346 321.095,827.196 333.022,818.355L326.288,801.491C319.538,811.398 313.176,821.371 301.512,825.091C305.362,842.974 299.24,857.744 287.789,870.497C281.97,876.978 273.655,878.432 264.999,878.307C249.03,878.076 233.055,878.241 216.29,878.241C212.106,888.847 204.446,898.172 193.235,904.544C163.712,921.327 124.631,903.462 117.952,870.045C112.306,841.797 130.165,813.988 158.243,808.438C164.739,807.154 171.77,808.621 178.556,808.726C180.087,808.749 181.624,808.367 183.157,808.171L183.029,806.014C177.027,805.344 171.016,804.743 165.026,803.98C160.765,803.437 156.476,802.919 152.302,801.949C147.521,800.838 144.414,796.087 145.002,791.536C145.553,787.281 149.008,784.71 154.504,785.036C169.774,785.942 185.075,786.632 200.278,788.227C207.242,788.957 213.921,792.129 220.881,793.243C228.217,794.418 235.729,794.576 243.176,794.894C244.581,794.954 246.316,793.98 247.437,792.971C262.567,779.355 280.45,774.879 300.318,776.723C306.731,777.318 313.158,777.763 320.325,778.337L317.661,767.999C311.76,767.999 306.317,768.042 300.876,767.987C295.254,767.931 290.957,764.168 291.154,759.582C291.367,754.65 294.728,752.012 300.831,751.999C307.498,751.985 314.17,751.823 320.827,752.059C323.006,752.136 325.147,753.257 327.615,754.133ZM144.479,882.006C159.75,898.944 186.739,892.986 195.129,876.068C189.413,875.706 183.821,875.34 178.227,874.999C172.581,874.656 166.937,874.251 161.286,874.029C155.322,873.795 150.548,870.445 150.211,864.87C149.928,860.184 150.737,855.362 151.59,850.697C152.307,846.777 155.17,844.251 159.116,843.817C162.802,843.412 166.567,843.731 170.468,843.731L175.14,827.55C161.498,823.791 148.055,829.602 139.959,842.604C132.165,855.118 133.712,870.082 144.479,882.006ZM201.023,819.311C211.99,827.508 217.561,838.972 220.166,851.833L227.803,851.833C223.543,835.297 215.211,822.232 200.121,814.272L198.83,814.967C199.356,816.28 199.881,817.592 201.023,819.311ZM356.022,893.82C369.484,894.599 379.954,889.209 386.676,877.681C393.151,866.579 392.576,855.256 385.163,844.606C377.978,834.284 367.724,830.144 354.885,829.992C356.056,832.812 357.043,835.035 357.908,837.304C359.887,842.496 361.889,846.984 367.754,849.825C375.211,853.437 377.118,863.172 373.259,870.09C369.294,877.196 360.448,880.13 353.112,876.772C346.147,873.583 343.24,865.526 345.922,857.328C346.375,855.944 346.517,854.157 346.045,852.825C344.427,848.252 342.472,843.799 340.489,838.913C331.497,848.156 326.768,858.545 330.239,871.054C333.711,883.566 342.285,891.152 356.022,893.82ZM192.869,847.707L200.571,848.198L191.49,835.03L187.928,846.688C189.501,846.988 190.781,847.231 192.869,847.707ZM194.261,739.327C168.436,756.387 137.932,742.584 129.698,719.667C126.578,710.983 126.171,702.35 127.999,693.426L146.391,693.426C144.108,702.741 143.294,712.031 150.183,719.35C153.638,723.021 158.422,726.319 163.206,727.692C175.19,731.13 186.482,725.529 192.621,714.002C184.619,714.002 176.881,714.016 169.144,713.997C162.168,713.981 158.231,710.452 158.044,704.097C157.865,697.97 161.929,693.693 168.595,693.319C172.582,693.096 176.59,693.251 180.588,693.249C183.742,693.247 187.771,693.665 187.732,689.319C187.7,685.572 185.093,683.797 180.64,683.868C160.985,684.178 141.322,684.002 121.662,684.002L116.209,684.002C120.642,657.698 142.921,638.247 174.768,632.002C169.271,632.002 163.773,632.021 158.276,631.997C151.475,631.968 147.06,627.905 146.958,621.625C146.851,615.06 151.316,610.303 157.957,610.018C160.452,609.911 162.955,610.015 165.454,610.015C192.945,610.016 220.436,609.932 247.925,610.123C251.244,610.146 254.873,611.043 257.796,612.594C262.893,615.298 265.868,622.077 264.937,626.862C263.888,632.251 258.61,636.891 252.347,638.025C251.281,638.218 249.707,638.421 249.321,639.135C244.144,648.704 240.109,658.645 242.572,669.835C244.991,680.824 252.864,686.034 263.293,687.537C282.168,690.256 298.258,683.878 305.399,663.137C307.937,655.763 307.767,648.134 305.471,640.654C301.716,628.416 297.786,616.231 294.089,603.975C292.8,599.703 291.1,597.018 285.797,597.024C279.158,597.032 275.607,592.674 275.999,586.617C276.343,581.292 280.355,578.051 286.677,577.992C293.305,577.93 295.464,578.737 302.524,583.91C303.114,583.616 303.795,583.429 304.281,583.013C311.565,576.783 320.073,575.511 329.384,575.855C341.987,576.32 342,575.964 342.003,588.744C342.003,592.243 341.85,595.75 342.041,599.239C342.298,603.95 340.765,606.892 335.592,607.216C332.815,607.39 330.064,607.975 327.467,608.35L351.127,647.652C361.427,645.933 372.55,646.493 382.754,652.276C384.576,653.308 385.299,656.281 386.529,658.357C384.419,659.574 382.409,661.053 380.162,661.912C378.79,662.436 377.053,662.009 374.854,662.009C398.282,675.994 405.229,699.362 398.317,718.829C391.127,739.077 371.849,751.2 350.558,748.956C329.383,746.725 312.127,728.704 309.724,706.712C302.98,708.88 296.187,711.18 289.313,713.205C287.134,713.848 284.739,713.965 282.442,713.97C259.126,714.022 235.81,714.002 212.412,714.002C208.977,724.305 203.514,732.967 194.261,739.327ZM361.361,696.328C363.357,700.495 364.689,704.747 361.584,708.926C357.265,714.738 349.371,713.485 346.107,706.369C342.882,699.336 339.971,692.159 336.816,684.799C326.648,695.95 325.539,709.888 333.598,720.03C342.513,731.249 356.846,734.491 368.624,727.953C380.631,721.288 386.063,707.384 381.557,694.854C377.069,682.374 365.838,675.505 353.094,677.679L361.361,696.328Z" style="fill:rgb(1,1,1);"/>
    </g>
    <g id="Auto" transform="matrix(0.290415,0,0,0.290415,-14.1456,-151.995)" style="visibility: hidden;">
      <path d="M383.165,714.997C397.303,717.16 410.875,719.699 422.61,727.884C434.489,736.171 441.717,746.858 441.207,761.975C440.905,770.964 440.763,779.989 441.211,788.964C441.978,804.328 431.421,814.469 415.899,814.006C414.763,813.972 413.626,814.002 411.995,814.002C413.576,797.481 408.911,783.311 396.568,772.325C386.408,763.281 374.266,759.829 360.724,760.982C342.029,762.575 316.837,781.565 320.955,813.707L212.293,813.707C215.644,777.902 186.405,757.641 159.641,761.005C135.371,764.055 116.908,788.845 120.93,813.998C114.998,813.692 110.118,811.433 105.898,807.632C100.095,802.405 96.898,796.039 96.954,788.009C97.086,768.847 97.12,749.681 96.917,730.52C96.859,725.072 98.292,720.372 101.64,716.264C114.751,700.173 127.819,684.044 141.135,668.123C152.5,654.536 167.879,648.736 184.987,648.402C214.471,647.825 243.983,647.737 273.465,648.329C291.532,648.692 306.671,657.426 320.196,668.786C334.84,681.085 348.884,694.119 363.841,706.015C369.157,710.243 376.383,712.069 383.165,714.997ZM240.002,707.46L240.002,716.019C271.14,716.019 301.749,716.054 332.357,715.919C333.983,715.912 335.602,714.464 337.947,713.341C333.303,709.117 329.446,705.507 325.478,702.024C317.359,694.896 309.238,687.769 301.013,680.764C282.794,665.248 260.957,671.005 240.002,669.918L240.002,707.46ZM219.351,698.634L219.351,670.039C206.96,670.039 194.661,669.525 182.425,670.191C171.485,670.787 162.237,675.227 155.38,684.569C149.502,692.577 142.504,699.757 136.164,707.437C134.796,709.094 134.126,711.327 133.135,713.295C135.472,714.196 137.804,715.864 140.148,715.882C164.936,716.073 189.725,716.005 214.514,715.994C215.957,715.993 217.399,715.871 218.766,715.809C218.903,715.183 219.021,714.878 219.028,714.571C219.141,709.582 219.24,704.593 219.351,698.634ZM140.101,788.15C149.238,776.397 162.952,771.941 176.046,776.197C188.66,780.297 198.43,793.362 198.95,806.829C199.526,821.726 187.188,836.829 172.667,839.001C155.256,841.607 138.895,831.564 135.013,815.793C132.599,805.986 133.839,796.777 140.101,788.15ZM364.169,774.953C382.871,773.549 398.231,788.519 398.84,807.661C399.288,821.713 388.97,834.41 374.76,838.463C361.399,842.273 346.405,835.967 338.875,823.796C325.66,802.433 341.46,776.108 364.169,774.953Z" style="fill:rgb(1,1,1);"/>
    </g>
    <g id="Piétons" transform="matrix(0.299881,0,0,0.299881,-16.8758,-19.9252)" style="visibility: hidden;">
      <path d="M190.29,231.269C208.763,217.448 226.681,203.445 245.305,190.455C256.646,182.544 269.023,185.222 280.765,190.719C288.421,194.303 293.607,200.547 297.624,207.778C305.458,221.88 313.266,235.997 320.902,250.207C322.927,253.975 325.583,256.332 329.53,258.213C341.674,263.998 353.727,270.041 365.422,276.676C373.777,281.417 374.228,291.543 366.996,297.479C363.203,300.592 358.742,301.161 354.366,299.256C339.461,292.769 324.638,286.093 309.822,279.404C302.244,275.982 298.879,268.561 294.178,262.437C292.176,259.829 290.415,257.034 288.048,253.605C285.251,265.327 283.278,276.541 279.801,287.267C276.852,296.361 278.517,303.107 284.508,310.463C294.426,322.642 302.927,335.964 312.559,348.391C318.008,355.422 319.324,363.594 321.354,371.719C325.937,390.064 330.716,408.359 335.296,426.704C337.347,434.917 332.262,443.764 324.503,445.938C315.618,448.428 306.588,443.626 304.101,434.94C298.72,416.149 293.061,397.425 288.279,378.48C286.567,371.696 283.129,366.567 278.751,361.567C269.764,351.304 260.929,340.908 252.012,330.583C251.399,329.872 250.635,329.292 249.651,328.383C244.486,341.07 240.188,353.661 234.352,365.495C224.963,384.532 214.571,403.074 204.576,421.812C202.176,426.311 199.297,430.595 197.297,435.26C192.78,445.791 182.37,446.693 175.953,443.512C167.958,439.549 165.039,429.873 169.185,420.84C178.231,401.133 187.535,381.542 196.349,361.732C202.484,347.943 208.659,334.102 213.536,319.846C217.088,309.46 218.401,298.323 220.979,287.585C225.124,270.322 229.49,253.112 233.936,235.177C225.491,241.343 217.352,247.04 209.564,253.183C208.037,254.387 207.675,257.264 207.109,259.456C204.318,270.266 201.759,281.137 198.883,291.924C196.703,300.099 191.537,304.65 185.039,304.665C176.606,304.685 171.267,296.839 173.129,287.283C175.808,273.527 178.41,259.755 181.077,245.996C182.229,240.052 185.412,235.33 190.29,231.269ZM259.249,169.761C245.801,155.923 245.679,135.783 258.709,122.772C271.523,109.977 292.073,109.906 305.116,122.612C317.862,135.029 318.472,155.25 306.489,168.117C293.525,182.037 273.74,182.833 259.249,169.761Z" style="fill:rgb(1,1,1);"/>
    </g>
    <g id="Vélo" transform="matrix(0.285535,0,0,0.285535,-152.107,-146.482)" style="">
      <path d="M897.893,717.056C920.924,732.295 932.78,753.372 931.914,780.746C930.795,816.06 904.01,843.148 873.524,848.218C835.685,854.511 798.894,829.466 792.136,789.593C787.177,760.331 801.369,730.662 827.27,715.869C827.834,715.547 828.32,715.089 829.103,714.497C827.967,711.467 826.831,708.437 825.576,705.086C820.163,710.809 814.819,716.434 809.505,722.085C794.216,738.342 778.916,754.588 763.68,770.894C760.845,773.928 758.074,777.068 755.649,780.429C751.791,785.778 746.553,787.88 740.214,787.888C734.391,787.895 728.567,787.89 722.393,787.89C718.475,811.436 706.294,829.51 685.21,840.947C667.827,850.378 649.37,851.589 630.479,845.992C594.109,835.216 573.111,793.897 585.139,756.277C596.882,719.551 636.796,697.446 675.618,710.883C680.976,701.181 686.445,691.455 691.664,681.597C692.284,680.427 691.894,678.401 691.367,677C688.881,670.394 686.185,663.869 683.438,657.003C679.26,657.003 674.94,657.061 670.623,656.989C665.035,656.896 661.107,653.124 660.995,647.87C660.88,642.464 664.498,638.131 670.024,638.075C688.02,637.892 706.021,637.878 724.016,638.09C729.524,638.154 733.183,642.659 733.004,648.006C732.828,653.239 728.883,656.922 723.174,656.985C716.182,657.062 709.189,657.003 701.563,657.003C702.969,660.7 704.047,664.106 705.604,667.276C706.063,668.209 707.88,668.969 709.077,668.972C743.226,669.061 777.375,669.044 812.068,669.044C804.883,658.602 813.973,652.171 817.957,644.005C810.175,644.005 802.764,644.04 795.354,643.994C789.008,643.954 784.938,640.171 784.998,634.483C785.055,628.951 789.328,625.045 795.532,625.01C804.864,624.957 814.198,624.884 823.529,625.026C835.142,625.202 842.79,636.742 838.039,647.437C835.929,652.187 832.358,656.278 829.599,660.759C828.922,661.86 828.19,663.546 828.558,664.581C833.829,679.394 839.285,694.142 844.735,709.014C863.662,704.671 881.219,706.865 897.893,717.056M910.049,796.487C916.835,776.1 913.627,757.692 898.672,741.949C885.759,728.355 869.763,723.771 850.948,726.617C857.176,742.803 863.27,758.493 869.204,774.243C869.965,776.261 870.917,779.298 869.996,780.627C868.204,783.214 865.442,785.853 862.543,786.771C858.674,787.997 855.54,785.389 854.04,781.647C851.234,774.642 848.654,767.548 845.96,760.498C842.548,751.571 839.117,742.652 835.653,733.62C815.306,746.646 806.33,766.658 811.072,789.294C816.971,817.444 845,835.333 872.797,829.134C890.828,825.114 902.836,814.023 910.049,796.487M680.5,787.95C672.011,787.968 663.522,787.985 655.033,788.002C654.367,788.003 653.701,788.006 653.035,788.002C643.526,787.935 639.195,781.117 643.564,772.593C651.183,757.73 659.058,742.999 666.837,728.191C649.813,721.375 625.057,728.752 612.464,744.238C597.462,762.684 595.863,787.661 608.445,806.998C620.756,825.918 644.051,834.793 665.691,828.72C686.225,822.957 701.298,804.18 702.908,787.951C695.765,787.951 688.632,787.951 680.5,787.95M742.996,753.5C744.257,756.298 745.517,759.095 746.873,762.104C770.812,737.137 794.432,712.503 818.665,687.23L713.741,687.23C723.512,709.314 733.127,731.046 742.996,753.5M702.069,763.596C698.831,752.005 692.163,742.906 681.916,735.857C675.862,747.49 669.899,758.949 663.886,770.503L703.708,770.503C703.203,768.113 702.809,766.245 702.069,763.596M717.925,737.607C712.467,725.171 707.008,712.735 701.283,699.691C697.888,706.15 694.702,712.211 691.431,718.435C709.327,731.319 719.449,748.59 722.486,769.875L731.861,769.875C727.101,759.028 722.567,748.698 717.925,737.607Z" style="fill:rgb(2,2,2);fill-rule:nonzero;"/>
    </g>
    <g id="TP" transform="matrix(0.215776,0,0,0.215776,-78.9257,-92.9304)">
      <path d="M890.517,851.334C886.399,858.788 880.486,863.067 872.013,864.348C872.013,870.886 872.041,877.529 872.006,884.171C871.963,892.379 867.319,896.968 859.055,896.996C852.557,897.019 846.059,897.031 839.561,896.993C830.859,896.942 826.009,892.13 826,883.604C825.993,877.606 825.993,871.608 825.982,865.609C825.981,865.289 825.898,864.968 825.808,864.322L687.161,864.322C687.161,871.21 687.33,878.156 687.116,885.09C686.882,892.675 682.388,896.901 674.803,896.986C668.473,897.058 662.141,897.006 655.809,897.001C647.063,896.994 642.323,892.439 642.15,883.655C642.025,877.337 642.125,871.014 642.125,864.412C635.342,862.605 629.072,859.956 625.135,853.655C621.039,847.099 619.933,839.947 619.943,832.319C620.04,763.173 620.224,694.027 619.885,624.883C619.757,598.594 643.481,582.599 661.687,582.739C725.831,583.233 789.982,583.238 854.126,582.764C874.477,582.614 894.186,600.229 894.1,623.255C893.837,693.899 894.072,764.545 893.861,835.19C893.845,840.473 891.83,845.75 890.517,851.334ZM760.5,603.878C743.026,603.867 725.552,603.919 708.079,603.794C704.317,603.767 701.896,605.365 701.129,608.798C700.283,612.582 701.644,615.748 705.531,617.18C707.024,617.73 708.718,617.949 710.321,617.951C742.106,617.999 773.892,617.878 805.676,618.09C812.245,618.134 814.565,614.482 814.56,611.06C814.555,607.406 812.35,603.643 805.931,603.777C791.127,604.087 776.311,603.876 760.5,603.878ZM765.5,764.129C795.995,764.123 826.49,764.135 856.985,764.101C868.033,764.089 873.973,758.179 873.975,747.297C873.98,716.136 873.863,684.974 874.024,653.813C874.076,643.795 866.652,635.825 856.007,635.868C790.019,636.134 724.029,636.144 658.041,635.837C648.843,635.795 639.761,642.456 639.903,654.212C640.272,684.536 640.029,714.868 640.017,745.196C640.011,758.62 645.455,764.096 659.017,764.106C694.178,764.134 729.339,764.124 765.5,764.129ZM852.559,831.314C863.072,826.759 867.904,817.239 864.983,806.839C862.04,796.362 850.789,790.089 839.902,793.056C830.946,795.496 823.218,805.386 825.86,816.593C828.77,828.934 838.133,834.462 852.559,831.314ZM672.894,832.837C674.133,832.4 675.393,832.013 676.609,831.519C686.167,827.635 691.467,817.183 688.729,807.656C685.733,797.231 675.57,791.036 664.826,793.085C655.459,794.872 648.406,804.269 649.002,814.169C649.696,825.684 658.815,833.118 672.894,832.837ZM547.644,584.195C554.514,584.204 561.383,584.219 568.253,584.243C587.297,584.31 603.119,595.734 608.657,613.47C609.906,617.47 610.56,621.825 610.569,626.018C610.69,685.168 610.533,744.319 610.735,803.469C610.785,817.958 604.332,827.791 591.614,833.848C588.827,835.176 588.158,836.679 587.817,839.813C586.286,853.883 589.87,866.066 598.923,876.976C602.203,880.929 604.468,885.77 606.906,890.361C609.415,895.087 607.915,897.776 602.716,898.144C590.638,898.999 580.015,896.423 572.656,885.64C571.683,884.215 569.212,883.06 567.429,883.051C536.586,882.896 505.741,882.896 474.898,883.057C473.176,883.066 470.874,884.326 469.839,885.736C461.941,896.506 451.093,899.585 438.492,898.138C434.393,897.667 432.489,895.473 434.917,891.343C438.623,885.038 442.378,878.761 446.375,872.134C456.225,862.205 453.961,849.971 453.917,838.299C453.913,837.133 452.216,835.465 450.922,834.891C436.889,828.663 430.642,817.728 430.658,802.646C430.716,744.862 430.576,687.078 430.749,629.294C430.829,602.31 449.358,584.229 476.306,584.217L494.739,584.204C491.744,579.297 488.944,574.642 485.988,570.088C485.6,569.491 484.202,569.359 483.266,569.341C479.125,569.264 474.981,569.289 470.838,569.314C467.559,569.333 465.123,568.074 463.856,564.918C462.621,561.843 463.638,559.432 466.29,557.227C468.159,556.719 469.78,556.138 471.402,556.136C504.287,556.081 537.172,556.091 570.057,556.095C574.856,556.096 577.977,558.632 578.057,562.546C578.14,566.619 574.933,569.251 569.88,569.313C565.501,569.368 560.342,568.07 556.965,569.95C553.611,571.817 552.03,576.891 549.716,580.586C549.022,581.694 548.394,582.844 547.644,584.195ZM584.974,625.22C583.211,616.612 578.095,612.367 569.071,612.354C536.68,612.309 504.288,612.316 471.896,612.348C462.005,612.358 456.036,618.39 456.027,628.325C456.003,656.619 456.004,684.913 456.027,713.207C456.034,722.267 460.918,727.116 470.023,727.121C503.585,727.14 537.147,727.139 570.71,727.125C580.17,727.121 585.071,722.386 585.088,712.909C585.139,684.03 585.073,655.152 584.974,625.22ZM508.634,584.193C516.966,584.186 525.297,584.182 533.629,584.184C536.72,579.41 539.614,574.507 542.6,569.601L499.729,569.601C502.256,573.748 504.582,577.566 507.289,581.829C507.633,582.824 508.078,583.602 508.634,584.193ZM486.801,859.505L555.265,859.505L555.265,836.41L486.801,836.41L486.801,859.505ZM464.179,765.898C462.401,767.049 460.444,767.998 458.875,769.385C451.372,776.014 450.199,785.926 455.83,793.933C460.883,801.118 471.683,803.319 479.824,798.823C488.207,794.193 491.54,784.499 487.709,775.893C483.767,767.04 474.514,762.887 464.179,765.898ZM580.675,798.847C588.041,794.136 591.953,786.646 590.527,779.987C588.79,771.877 582.177,765.625 574.299,764.643C567.095,763.745 559.048,768.179 555.587,774.954C552.385,781.22 553.354,789.275 557.941,794.516C563.816,801.229 570.486,802.729 580.675,798.847Z" style="fill: rgb(1, 1, 1); visibility: hidden;"/>
    </g>
  </g>
</svg>